





@startuml
scale 350 width


@startuml
[*] --> Földön
Földön --> Felvéve

Felvéve --> [*]

@enduml



@startuml
scale 350 width


@startuml
[*] --> Földön
Földön --> Felvéve
Felvéve --> Földön
state Földön {
 Bekapcsolva --> Kikapcsolva
 Kikapcsolva --> Bekapcsolva
}

Felvéve --> [*]
Földön --> [*]

@enduml



@startuml
scale 350 width


@startuml
[*] --> Sima_szoba
Sima_szoba --> Gázos_szoba
Gázos_szoba --> Sima_szoba
Sima_szoba --> Eltűnős_szoba
Eltűnős_szoba --> Sima_szoba
Eltűnős_szoba --> Gázos_és_eltünős_szoba
Gázos_és_eltünős_szoba --> Eltűnős_szoba
Gázos_és_eltünős_szoba --> Gázos_szoba
Gázos_szoba --> Gázos_és_eltünős_szoba

Gázos_és_eltünős_szoba --> [*]
Sima_szoba --> [*]
Gázos_szoba --> [*]
Eltűnős_szoba --> [*]
@enduml



@startuml
scale 350 width


@startuml
[*] --> Nincs_a_játékosnál_tárgy
Nincs_a_játékosnál_tárgy --> 1_tárgy
1_tárgy --> 2_tárgy
2_tárgy --> 1_tárgy
1_tárgy --> Nincs_a_játékosnál_tárgy

2_tárgy --> 3_tárgy
3_tárgy --> 2_tárgy
2_tárgy --> Nincs_a_játékosnál_tárgy

3_tárgy --> 4_tárgy
4_tárgy --> 3_tárgy
3_tárgy --> Nincs_a_játékosnál_tárgy

4_tárgy --> 5_tárgy
5_tárgy --> 4_tárgy
4_tárgy --> Nincs_a_játékosnál_tárgy

5_tárgy --> Nincs_a_játékosnál_tárgy

1_tárgy --> [*]
2_tárgy --> [*]
3_tárgy --> [*]
4_tárgy --> [*]
5_tárgy --> [*]
Nincs_a_játékosnál_tárgy --> [*]
@enduml

