@startuml
'https://plantuml.com/state-diagram
scale 350 width


@startuml
[*] --> On_the_ground
On_the_ground --> Picked_up : pick_up
Picked_up --> On_the_ground : drop/use
Picked_up --> Used : use
state Used {
 [*] --> Valid_for_X_more_rounds
 Valid_for_X_more_rounds --> Effect_not_active : round_passes [X == 0]
}


@enduml
